<svg width="159" height="47" viewBox="0 0 159 47" fill="none" xmlns="http://www.w3.org/2000/svg">
<path d="M89.9033 26.9904L91.249 29.0974L89.9033 26.9904ZM157.768 20.2583C158.744 19.282 158.744 17.699 157.768 16.7227L141.858 0.812833C140.882 -0.163478 139.299 -0.163478 138.322 0.812833C137.346 1.78914 137.346 3.37206 138.322 4.34837L152.464 18.4905L138.322 32.6326C137.346 33.6089 137.346 35.1919 138.322 36.1682C139.299 37.1445 140.882 37.1445 141.858 36.1682L157.768 20.2583ZM0.232233 28.7582C13.2031 41.7291 27.8215 47.1411 43.3851 46.5511C58.838 45.9654 75.0011 39.4748 91.249 29.0974L88.5576 24.8835C72.7088 35.0061 57.4203 41.0155 43.1957 41.5547C29.0818 42.0898 15.7969 37.2518 3.76777 25.2227L0.232233 28.7582ZM91.249 29.0974C122.535 9.11544 136.907 20.9905 156 20.9905V15.9905C139.44 15.9905 121.465 3.86544 88.5576 24.8835L91.249 29.0974Z" fill="white"/>
</svg>
